<?xml version="1.0" encoding="UTF-8" standalone="no"?>
<!DOCTYPE svg PUBLIC "-//W3C//DTD SVG 1.1//EN" "http://www.w3.org/Graphics/SVG/1.1/DTD/svg11.dtd">
<svg width="100%" height="100%" viewBox="0 0 16 16" version="1.1" xmlns="http://www.w3.org/2000/svg" xmlns:xlink="http://www.w3.org/1999/xlink" xml:space="preserve" xmlns:serif="http://www.serif.com/" style="fill-rule:evenodd;clip-rule:evenodd;stroke-linejoin:round;stroke-miterlimit:1;">
    <g transform="matrix(0.940747,0,0,0.929656,0.497821,0.747629)">
        <g id="Camada1">
            <path d="M1.187,6.814C1.126,6.653 1.093,6.487 1.093,6.317C1.093,5.841 1.345,5.397 1.78,5.022C1.593,4.727 1.489,4.399 1.489,4.054C1.489,2.771 2.925,1.73 4.695,1.73C4.843,1.73 4.989,1.737 5.131,1.751C5.713,1.214 6.829,0.85 8.109,0.85C9.633,0.85 10.924,1.366 11.358,2.075C13.202,2.108 14.68,2.918 14.68,3.91C14.68,4.138 14.602,4.357 14.46,4.558C14.737,4.929 14.891,5.34 14.891,5.771C14.891,6.378 14.586,6.943 14.062,7.416C13.561,7.869 12.858,8.237 12.03,8.476C11.407,8.656 10.713,8.763 9.981,8.778C9.772,9.367 9.653,10.041 9.653,10.756C9.653,12.848 10.666,14.583 11.986,14.891L4.125,14.891L4.125,14.811C5.649,14.362 6.792,12.51 6.792,10.295C6.792,9.726 6.716,9.18 6.578,8.676C6.245,8.72 5.897,8.743 5.539,8.743C5.045,8.743 4.569,8.699 4.125,8.618C2.644,8.346 1.51,7.661 1.187,6.814Z" style="fill:none;stroke:rgb(224,224,224);stroke-width:0.93px;"/>
        </g>
    </g>
</svg>
