<?xml version="1.0" encoding="UTF-8" standalone="no"?>
<!DOCTYPE svg PUBLIC "-//W3C//DTD SVG 1.1//EN" "http://www.w3.org/Graphics/SVG/1.1/DTD/svg11.dtd">
<svg width="100%" height="100%" viewBox="0 0 360 360" version="1.1" xmlns="http://www.w3.org/2000/svg" xmlns:xlink="http://www.w3.org/1999/xlink" xml:space="preserve" xmlns:serif="http://www.serif.com/" style="fill-rule:evenodd;clip-rule:evenodd;stroke-linejoin:round;stroke-miterlimit:2;">
    <g id="Camada_2">
        <g>
            <path d="M351.87,156.95C351.42,153.57 348.28,151.32 344.9,151.76C333.45,153.25 321.43,149.92 312.15,141.6C295.26,126.43 293.88,100.45 309.03,83.56C310.45,81.98 311.96,80.54 313.55,79.24C316.17,77.09 316.69,73.28 314.55,70.65C305.93,60.04 296.08,50.48 285.22,42.17C282.52,40.11 278.71,40.74 276.64,43.43C269.59,52.59 258.74,58.73 246.3,59.39C223.64,60.61 204.27,43.21 203.05,20.56C202.93,18.39 202.99,16.25 203.2,14.16C203.54,10.84 201.12,7.85 197.8,7.51C191.95,6.91 186.01,6.61 180,6.61C172.19,6.61 164.49,7.12 156.95,8.12C153.57,8.57 151.32,11.71 151.76,15.09C153.25,26.54 149.92,38.56 141.6,47.83C126.43,64.73 100.45,66.12 83.56,50.96C81.98,49.54 80.54,48.03 79.24,46.44C77.09,43.82 73.28,43.3 70.65,45.44C60.04,54.06 50.48,63.91 42.17,74.77C40.11,77.47 40.74,81.28 43.43,83.35C52.59,90.4 58.73,101.25 59.39,113.69C60.61,136.35 43.21,155.72 20.56,156.94C18.39,157.06 16.25,157 14.16,156.79C10.84,156.45 7.85,158.87 7.51,162.19C6.91,168.04 6.61,173.98 6.61,179.99C6.61,187.8 7.12,195.5 8.12,203.04C8.57,206.42 11.71,208.67 15.09,208.23C26.54,206.74 38.56,210.07 47.83,218.39C64.73,233.56 66.12,259.54 50.96,276.43C49.54,278.01 48.03,279.45 46.44,280.75C43.82,282.9 43.3,286.71 45.44,289.34C54.06,299.95 63.91,309.51 74.77,317.82C77.47,319.88 81.28,319.25 83.35,316.56C90.4,307.4 101.25,301.26 113.69,300.6C136.35,299.38 155.72,316.78 156.94,339.43C157.06,341.6 157,343.74 156.79,345.83C156.45,349.15 158.87,352.14 162.19,352.48C168.04,353.08 173.98,353.38 179.99,353.38C187.8,353.38 195.5,352.87 203.04,351.87C206.42,351.42 208.67,348.28 208.23,344.9C206.74,333.44 210.07,321.42 218.39,312.15C233.56,295.26 259.54,293.88 276.43,309.03C278.01,310.45 279.45,311.96 280.75,313.55C282.9,316.17 286.71,316.69 289.34,314.55C299.95,305.93 309.51,296.08 317.82,285.22C319.88,282.52 319.25,278.71 316.56,276.64C307.4,269.59 301.26,258.74 300.6,246.3C299.38,223.64 316.78,204.27 339.43,203.05C341.6,202.93 343.74,202.99 345.83,203.2C349.15,203.54 352.14,201.12 352.48,197.8C353.08,191.95 353.38,186.01 353.38,180C353.39,172.19 352.87,164.49 351.87,156.95ZM273.76,183.13C272.03,234.92 228.66,275.49 176.87,273.76C125.08,272.03 84.51,228.66 86.24,176.87C87.97,125.08 131.34,84.51 183.13,86.24C234.92,87.97 275.49,131.34 273.76,183.13Z" style="fill:rgb(224,224,224);fill-rule:nonzero;"/>
            <path d="M182.45,106.52C141.82,105.17 107.8,136.96 106.44,177.55C105.08,218.13 136.91,252.12 177.55,253.48C218.18,254.83 252.2,223.04 253.56,182.45C254.92,141.87 223.09,107.88 182.45,106.52ZM238.46,181.95C237.37,214.18 210.33,239.43 178.04,238.36C145.76,237.28 120.46,210.28 121.53,178.04C122.62,145.81 149.66,120.56 181.95,121.63C214.24,122.7 239.54,149.71 238.46,181.95Z" style="fill:rgb(224,224,224);fill-rule:nonzero;"/>
        </g>
    </g>
</svg>
