<?xml version="1.0" encoding="UTF-8" standalone="no"?>
<!DOCTYPE svg PUBLIC "-//W3C//DTD SVG 1.1//EN" "http://www.w3.org/Graphics/SVG/1.1/DTD/svg11.dtd">
<svg width="100%" height="100%" viewBox="0 0 16 16" version="1.1" xmlns="http://www.w3.org/2000/svg" xmlns:xlink="http://www.w3.org/1999/xlink" xml:space="preserve" xmlns:serif="http://www.serif.com/" style="fill-rule:evenodd;clip-rule:evenodd;stroke-linejoin:round;stroke-miterlimit:2;">
    <g transform="matrix(0.0153501,0,0,0.0153501,-1.09477,0.697115)">
        <path d="M644.513,26.363C657.863,28.004 668.454,38.397 670.347,51.714C671.914,62.269 673.389,72.643 673.389,72.643C678.742,110.126 702.873,142.276 737.369,157.885C739.102,157.814 740.509,158.467 741.911,159.128C782.496,178.215 829.889,176.025 868.54,153.275C876.09,149.447 882.637,145.901 887.292,143.314C887.759,142.016 888.843,141.036 890.181,140.7C891.52,140.364 892.938,140.717 893.963,141.641C926.839,168.108 954.001,200.547 976.275,236.237C983.315,247.698 981.793,262.457 972.562,272.241C965.287,280.047 958.095,287.668 958.095,287.668C932.128,315.224 922.038,354.135 931.342,390.837C932.478,392.149 932.844,393.655 933.201,395.164C943.583,438.795 974.845,474.482 1016.73,490.517C1032.11,497.54 1044.11,502.135 1044.11,502.135C1041.63,544.591 1033.18,586.446 1019.04,626.473C1014.47,639.124 1001.98,647.136 988.575,646.019C977.936,645.197 967.493,644.327 967.493,644.327C929.759,641.205 893.046,657.577 870.152,687.735C869.835,689.44 868.886,690.666 867.929,691.886C840.29,727.206 831.88,773.898 845.458,816.643C849.501,832.82 853.34,844.956 853.446,845.289C818.707,869.829 780.715,889.317 740.603,903.216C727.862,907.529 713.812,902.761 706.328,891.584C700.336,882.755 694.506,874.047 694.506,874.047C673.42,842.6 637.729,824.104 599.878,825.007C598.346,825.823 596.796,825.845 595.246,825.858C550.398,826.27 508.649,848.807 483.697,886.074C481.513,888.929 479.471,891.66 477.609,894.191C469.847,903.565 457.117,907.196 445.577,903.328C412.205,892.163 380.373,876.884 350.635,858.072C339.319,850.8 334.286,836.842 338.358,824.022C341.526,813.833 344.699,803.846 344.699,803.846C356.139,767.753 348.347,728.317 324.04,699.286C322.447,698.597 321.463,697.399 320.487,696.195C292.203,661.389 248.553,642.8 203.859,646.526C200.8,646.589 197.875,646.675 195.137,646.775C182.22,647.225 170.484,639.305 166.068,627.158C154.451,594.112 146.604,559.854 142.789,525.036C141.418,511.655 149.193,499.018 161.755,494.208C171.697,490.332 181.483,486.586 181.483,486.586C216.835,473.026 242.809,442.346 250.35,405.242C249.896,403.567 250.219,402.051 250.552,400.537C260.13,356.722 247.448,311.005 216.668,278.385C214.941,276.308 213.264,274.324 211.666,272.456C202.82,262.73 201.45,248.334 208.303,237.114C226.729,207.218 248.67,179.646 273.576,154.891C283.184,145.476 297.912,143.676 309.504,150.498C318.733,155.854 327.764,161.17 327.764,161.17C360.407,180.354 400.588,181.533 434.299,164.295C435.325,162.896 436.712,162.203 438.104,161.52C478.331,141.69 506.167,103.27 512.479,58.868C512.982,56.436 513.45,54.087 513.883,51.849C515.764,38.903 526.051,28.803 539.029,27.158C574.012,22.362 609.441,22.303 644.513,26.363ZM592.49,270.614C479.269,270.614 387.349,362.535 387.349,475.755C387.349,588.976 479.269,680.897 592.49,680.897C705.71,680.897 797.631,588.976 797.631,475.755C797.631,362.535 705.71,270.614 592.49,270.614Z" style="fill:rgb(224,224,224);"/>
    </g>
</svg>
